<?xml version="1.0" encoding="UTF-8"?>
<!-- Created with Inkscape (http://www.inkscape.org/) -->
<svg width="1024" height="1024" version="1.1" viewBox="0 0 1024 1024" xmlns="http://www.w3.org/2000/svg">
 <path d="m159.04 1020.2c-39.367-3.3245-76.661-21.17-106.01-50.723-24.142-24.314-39.448-50.983-48.934-85.267l-4.981-18.001v-354.85c0-330.44 0.22565-355.73 3.2792-367.6 5.6925-22.135 14.759-42.92 26.097-59.832 32.114-47.9 76.246-73.967 135.28-79.904 12.198-1.2268 140.35-1.6694 360.53-1.2451 307.12 0.59186 342.94 0.9688 354.85 3.7334 71.162 16.518 121.54 64.343 140.65 133.52l5.0753 18.373v705.92l-4.4355 17.033c-8.4862 32.589-25.883 63.38-49.006 86.738-23.67 23.911-53.341 40.603-87.035 48.964l-16.606 4.1206-347.28 0.1132c-191.01 0.062-353.67-0.4263-361.48-1.0856zm621.52-156.78c21.177-5.4161 35.862-13.93 52.279-30.308 10.356-10.331 16.149-18.09 21.211-28.407 13.465-27.443 12.747-11.056 12.741-290.51-6e-3 -278.72 0.58472-264.87-12.44-292.05-9.0468-18.88-31.708-42.023-49.953-51.015-26.521-13.071-9.1206-12.339-294.29-12.38-285.55-0.0411-266.99-0.8253-294.15 12.434-15.754 7.6903-38.449 29.926-46.828 45.879-13.905 26.475-12.924 3.9797-12.924 296.18v262.12l4.334 12.539c13.241 38.308 44.111 67.141 81.777 76.381 8.4591 2.0752 58.48 2.5831 267.02 2.7112 249.63 0.1533 257.01 0.056 271.23-3.581zm-529.73-55.658c-18.427-5.8273-32.069-20.138-37.893-39.747-4.2846-14.428-4.1959-494.63 0.0943-511.1 4.7662-18.299 16.62-31.374 34.809-38.394 8.1344-3.1397 24.434-3.3454 265.11-3.3454h256.44l8.5165 4.5054c11.74 6.2107 18.926 11.463 18.926 13.834 0 1.1695-1.3708 0.92036-3.312-0.60201-2.9971-2.3505-3.0667-2.2845-0.73183 0.69371 1.4191 1.8101 3.2214 2.8948 4.0053 2.4103 2.2321-1.3795 6.9641 4.8511 10.762 14.17 3.3065 8.1135 3.4707 20.56 3.4707 263.06v254.55l-5.2804 10.753c-5.7249 11.658-13.94 19.917-26.472 26.614l-7.9907 4.2698-256.44 0.3603c-202.33 0.2843-258.04-0.14477-264.01-2.0337zm109.54-135.38c3.2455-2.0179 30.386-28.804 60.312-59.525l54.411-55.856v-10.354c0-8.4089-0.93127-11.461-4.9568-16.245-9.6033-11.413-22.647-14.508-34.226-8.1206-3.3022 1.8216-23.994 22.474-45.981 45.894-21.987 23.42-41.285 42.874-42.883 43.23-1.6698 0.37194-10.692-7.0031-21.212-17.339-19.919-19.57-26.191-22.565-38.648-18.453-15.221 5.0235-23.021 23.74-15.672 37.604 3.0314 5.7184 54.782 57.44 60.691 60.657 6.2581 3.4072 21.591 2.5945 28.165-1.493zm-53.714-17.802c0-0.35913-1.9162-2.2753-4.2582-4.2582l-4.2582-3.6053 3.6053 4.2582c3.3881 4.0017 4.9112 5.1198 4.9112 3.6053zm-15.14-15.14c0-0.35913-1.9162-2.2753-4.2582-4.2582l-4.2582-3.6053 3.6053 4.2582c3.3881 4.0017 4.9112 5.1198 4.9112 3.6053zm446.42-12.696c15.258-8.5757 20.019-26.238 10.75-39.879-9.0706-13.349-5.9646-13.011-119.83-13.011h-102.1l-6.3856 4.3033c-14.705 9.9097-18.726 24.508-10.497 38.103 8.9113 14.722 4.5686 14.201 119.21 14.29 99.392 0.0774 102.11-0.0171 108.85-3.8066zm-397.21-23.263c0-0.35913-1.9162-2.2753-4.2582-4.2582l-4.2582-3.6053 3.6053 4.2582c3.3881 4.0017 4.9112 5.1198 4.9112 3.6053zm-11.355-11.277c0-0.31627-3.1937-3.51-7.0971-7.0971l-7.0971-6.522 6.522 7.0971c6.0706 6.6058 7.6721 7.9672 7.6721 6.522zm27.442-108.38c0-6.3733 105.92-104.09 114.03-115.03 8.5083-11.487 3.667-32.118-9.0464-38.551-5.8861-2.9784-19.09-3.1014-25.378-0.23632-2.6373 1.2017-23.187 22.067-45.666 46.368-22.479 24.3-42.31 44.183-44.069 44.183-1.7591 0-10.418-7.3004-19.243-16.223-19.251-19.465-24.147-22.38-35.446-21.107-10.249 1.1552-20.663 10.305-22.426 19.703-2.6692 14.228-0.34879 18.04 29.694 48.779 15.584 15.946 31.077 30.344 34.428 31.997 7.7595 3.8258 23.126 8.2492 23.126 0.11659zm382.36-50.899c19.48-11.416 18.517-38.052-1.7691-48.907-7.6986-4.1194-8.4674-4.1492-107.11-4.1492-109.44 0-109.78 0.0325-118.48 11.438-10.378 13.606-6.4808 33.555 8.2192 42.075 7.0643 4.0945 7.8064 4.1228 109.14 4.166l102.03 0.0435z" stroke-width="1.8926"/>
</svg>
