<?xml version="1.0" encoding="UTF-8" standalone="no"?>
<!-- Created with Inkscape (http://www.inkscape.org/) -->

<svg
   version="1.1"
   id="svg1"
   width="1024"
   height="1024"
   viewBox="0 0 1024 1024"
   xmlns="http://www.w3.org/2000/svg"
   xmlns:svg="http://www.w3.org/2000/svg">
  <defs
     id="defs1" />
  <g
     id="g1">
    <g
       id="g15"
       transform="matrix(1.6939411,0,0,1.6939411,-275.56035,-256.2344)">
      <path
         style="fill:#000000"
         d="m 338.92092,747.86451 c -0.85018,-24.36388 -0.37758,-48.75675 -0.50102,-73.1341 46.62386,-21.44615 64.95698,-75.27222 72.74834,-122.36458 14.88839,-92.23281 12.61288,-188.63703 46.89184,-276.82138 23.05012,-57.4884 73.10095,-112.03722 138.17065,-116.48188 44.765,-4.47277 88.11339,24.16456 104.69676,65.42122 34.30695,78.58927 11.29745,177.85167 -53.8825,233.61926 -40.50485,38.78043 -97.19616,55.97196 -152.44343,55.89326 -6.15104,71.79134 -23.67168,149.43716 -79.10789,199.87383 -21.17141,18.54526 -48.08188,32.83327 -76.57275,33.99437 z M 529.91986,432.57503 c 56.2109,-9.57382 105.20147,-57.34013 108.83555,-115.46794 1.85734,-27.51027 -0.91309,-64.73254 -29.67258,-77.60357 -32.37457,-9.31944 -57.84231,21.21104 -71.24365,46.79281 -23.95804,45.79287 -27.17475,98.44004 -34.41932,148.6822 8.72953,1.50723 17.84554,-1.20192 26.5,-2.4035 z"
         id="path1-6" />
      <path
         d="m 273.75295,739.08751 c -21.6569,-11.4391 -40.35316,-32.2931 -49.86202,-55.6165 -1.90681,-4.6771 -3.73214,-9.8298 -4.05629,-11.4505 -0.55891,-2.7946 -0.36531,-3.0006 3.74795,-3.987 2.38552,-0.5721 17.76677,-4.7399 34.18056,-9.2619 16.41378,-4.5219 29.94644,-8.0761 30.07257,-7.8983 0.12613,0.1779 0.99922,2.4029 1.94021,4.9445 3.25953,8.8039 11.20594,17.7469 18.72766,21.0763 1.92153,0.8506 -25.86643,65.7604 -26.75064,65.7786 -0.64182,0.013 -4.24182,-1.6001 -8,-3.5852 z m -59.71381,-133.128 c 2.02816,-16.5268 7.41721,-36.84101 13.73187,-51.76274 3.7027,-8.7496 12.88131,-25.53719 16.83672,-30.79419 1.24831,-1.65909 3.38144,-0.42629 28.33106,16.37342 14.83961,9.99218 27.57232,18.71934 28.29491,19.3937 1.07493,1.00318 0.67423,2.38977 -2.20397,7.62658 -5.47373,9.95931 -9.54094,20.41161 -12.60774,32.40053 l -2.81384,11 -35.07674,0.2627 -35.07675,0.2628 z m 97.64123,-91.64721 c -8.25642,-8.86354 -18.68751,-20.03087 -23.18019,-24.81628 l -8.16851,-8.70075 5.79411,-4.61199 c 15.98187,-12.7212 39.08923,-25.63721 56.79412,-31.74544 12.03086,-4.15068 24.34501,-7.22939 25.25923,-6.31517 0.63878,0.63877 9.17199,60.9235 9.21821,65.12402 0.0186,1.69385 -0.97623,2.25977 -5.72744,3.25798 -7.77949,1.63445 -23.67699,9.45292 -35.36392,17.39216 l -9.61393,6.531 z"
         style="fill:#f9ca00;fill-opacity:1"
         id="path1-18" />
    </g>
  </g>
</svg>
